<mxfile host="app.diagrams.net" agent="Mozilla/5.0 (Windows NT 10.0; Win64; x64) AppleWebKit/537.36 (KHTML, like Gecko) Chrome/131.0.0.0 Safari/537.36" version="24.8.4">
  <diagram name="Страница — 1" id="flwhHsKn3axgAb0VGRPY">
    <mxGraphModel dx="1050" dy="530" grid="1" gridSize="10" guides="1" tooltips="1" connect="1" arrows="1" fold="1" page="1" pageScale="1" pageWidth="2339" pageHeight="3300" math="0" shadow="0">
      <root>
        <mxCell id="0" />
        <mxCell id="1" parent="0" />
        <mxCell id="ttX8r5JAo-KZAoGgz0Xc-2" style="edgeStyle=orthogonalEdgeStyle;rounded=0;orthogonalLoop=1;jettySize=auto;html=1;" parent="1" source="ttX8r5JAo-KZAoGgz0Xc-1" edge="1">
          <mxGeometry relative="1" as="geometry">
            <mxPoint x="325" y="100" as="targetPoint" />
          </mxGeometry>
        </mxCell>
        <mxCell id="ttX8r5JAo-KZAoGgz0Xc-1" value="Start" style="ellipse;whiteSpace=wrap;html=1;" parent="1" vertex="1">
          <mxGeometry x="270" y="30" width="110" height="40" as="geometry" />
        </mxCell>
        <mxCell id="ttX8r5JAo-KZAoGgz0Xc-6" style="edgeStyle=orthogonalEdgeStyle;rounded=0;orthogonalLoop=1;jettySize=auto;html=1;" parent="1" source="ttX8r5JAo-KZAoGgz0Xc-4" target="ttX8r5JAo-KZAoGgz0Xc-7" edge="1">
          <mxGeometry relative="1" as="geometry">
            <mxPoint x="325" y="200" as="targetPoint" />
          </mxGeometry>
        </mxCell>
        <mxCell id="ttX8r5JAo-KZAoGgz0Xc-4" value="&quot;Введіть початкові дані:&quot;" style="shape=parallelogram;perimeter=parallelogramPerimeter;whiteSpace=wrap;html=1;fixedSize=1;" parent="1" vertex="1">
          <mxGeometry x="260" y="100" width="130" height="60" as="geometry" />
        </mxCell>
        <mxCell id="ttX8r5JAo-KZAoGgz0Xc-8" style="edgeStyle=orthogonalEdgeStyle;rounded=0;orthogonalLoop=1;jettySize=auto;html=1;" parent="1" source="ttX8r5JAo-KZAoGgz0Xc-7" target="ttX8r5JAo-KZAoGgz0Xc-11" edge="1">
          <mxGeometry relative="1" as="geometry">
            <mxPoint x="325" y="260" as="targetPoint" />
          </mxGeometry>
        </mxCell>
        <mxCell id="ttX8r5JAo-KZAoGgz0Xc-7" value="double R1, R2" style="rounded=0;whiteSpace=wrap;html=1;" parent="1" vertex="1">
          <mxGeometry x="265" y="190" width="120" height="40" as="geometry" />
        </mxCell>
        <mxCell id="ttX8r5JAo-KZAoGgz0Xc-12" style="edgeStyle=orthogonalEdgeStyle;rounded=0;orthogonalLoop=1;jettySize=auto;html=1;" parent="1" source="ttX8r5JAo-KZAoGgz0Xc-11" target="ttX8r5JAo-KZAoGgz0Xc-13" edge="1">
          <mxGeometry relative="1" as="geometry">
            <mxPoint x="325" y="330" as="targetPoint" />
          </mxGeometry>
        </mxCell>
        <mxCell id="ttX8r5JAo-KZAoGgz0Xc-11" value="&quot;Величина першого опору (Ом) &quot;" style="shape=parallelogram;perimeter=parallelogramPerimeter;whiteSpace=wrap;html=1;fixedSize=1;" parent="1" vertex="1">
          <mxGeometry x="252.5" y="250" width="145" height="50" as="geometry" />
        </mxCell>
        <mxCell id="ttX8r5JAo-KZAoGgz0Xc-13" value="cin &amp;gt;&amp;gt; R1" style="shape=parallelogram;perimeter=parallelogramPerimeter;whiteSpace=wrap;html=1;fixedSize=1;" parent="1" vertex="1">
          <mxGeometry x="265" y="330" width="120" height="30" as="geometry" />
        </mxCell>
        <mxCell id="ttX8r5JAo-KZAoGgz0Xc-14" style="edgeStyle=orthogonalEdgeStyle;rounded=0;orthogonalLoop=1;jettySize=auto;html=1;" parent="1" target="ttX8r5JAo-KZAoGgz0Xc-16" edge="1">
          <mxGeometry relative="1" as="geometry">
            <mxPoint x="325" y="390" as="targetPoint" />
            <mxPoint x="325" y="360" as="sourcePoint" />
          </mxGeometry>
        </mxCell>
        <mxCell id="ttX8r5JAo-KZAoGgz0Xc-15" style="edgeStyle=orthogonalEdgeStyle;rounded=0;orthogonalLoop=1;jettySize=auto;html=1;" parent="1" source="ttX8r5JAo-KZAoGgz0Xc-16" target="ttX8r5JAo-KZAoGgz0Xc-17" edge="1">
          <mxGeometry relative="1" as="geometry">
            <mxPoint x="325" y="460" as="targetPoint" />
          </mxGeometry>
        </mxCell>
        <mxCell id="ttX8r5JAo-KZAoGgz0Xc-16" value="&quot;Величина другого&amp;nbsp;&lt;div&gt;опору (Ом) &quot;&lt;/div&gt;" style="shape=parallelogram;perimeter=parallelogramPerimeter;whiteSpace=wrap;html=1;fixedSize=1;" parent="1" vertex="1">
          <mxGeometry x="252.5" y="380" width="145" height="50" as="geometry" />
        </mxCell>
        <mxCell id="ttX8r5JAo-KZAoGgz0Xc-18" style="edgeStyle=orthogonalEdgeStyle;rounded=0;orthogonalLoop=1;jettySize=auto;html=1;entryX=0.5;entryY=0;entryDx=0;entryDy=0;" parent="1" source="ttX8r5JAo-KZAoGgz0Xc-17" target="ttX8r5JAo-KZAoGgz0Xc-19" edge="1">
          <mxGeometry relative="1" as="geometry">
            <mxPoint x="520" y="70" as="targetPoint" />
          </mxGeometry>
        </mxCell>
        <mxCell id="ttX8r5JAo-KZAoGgz0Xc-17" value="cin &amp;gt;&amp;gt; R2" style="shape=parallelogram;perimeter=parallelogramPerimeter;whiteSpace=wrap;html=1;fixedSize=1;" parent="1" vertex="1">
          <mxGeometry x="265" y="460" width="120" height="30" as="geometry" />
        </mxCell>
        <mxCell id="ttX8r5JAo-KZAoGgz0Xc-20" style="edgeStyle=orthogonalEdgeStyle;rounded=0;orthogonalLoop=1;jettySize=auto;html=1;" parent="1" source="ttX8r5JAo-KZAoGgz0Xc-19" target="ttX8r5JAo-KZAoGgz0Xc-21" edge="1">
          <mxGeometry relative="1" as="geometry">
            <mxPoint x="325" y="580" as="targetPoint" />
          </mxGeometry>
        </mxCell>
        <mxCell id="ttX8r5JAo-KZAoGgz0Xc-19" value="double R_total = R1 + R2" style="rounded=0;whiteSpace=wrap;html=1;" parent="1" vertex="1">
          <mxGeometry x="265" y="510" width="120" height="40" as="geometry" />
        </mxCell>
        <mxCell id="ttX8r5JAo-KZAoGgz0Xc-22" style="edgeStyle=orthogonalEdgeStyle;rounded=0;orthogonalLoop=1;jettySize=auto;html=1;" parent="1" source="ttX8r5JAo-KZAoGgz0Xc-21" target="ttX8r5JAo-KZAoGgz0Xc-23" edge="1">
          <mxGeometry relative="1" as="geometry">
            <mxPoint x="325" y="650" as="targetPoint" />
          </mxGeometry>
        </mxCell>
        <mxCell id="ttX8r5JAo-KZAoGgz0Xc-21" value="форматування виводу(fixed) та 2 цифри після коми" style="rounded=0;whiteSpace=wrap;html=1;" parent="1" vertex="1">
          <mxGeometry x="265" y="580" width="120" height="40" as="geometry" />
        </mxCell>
        <mxCell id="ttX8r5JAo-KZAoGgz0Xc-24" style="edgeStyle=orthogonalEdgeStyle;rounded=0;orthogonalLoop=1;jettySize=auto;html=1;entryX=0.5;entryY=0;entryDx=0;entryDy=0;" parent="1" source="ttX8r5JAo-KZAoGgz0Xc-23" target="S9VI-ioRWlaTo8XHlLc8-18" edge="1">
          <mxGeometry relative="1" as="geometry">
            <mxPoint x="325" y="710" as="targetPoint" />
          </mxGeometry>
        </mxCell>
        <mxCell id="ttX8r5JAo-KZAoGgz0Xc-23" value="cout &amp;lt;&amp;lt; &quot;Опір ланцюга: &quot; &amp;lt;&amp;lt; R_total &amp;lt;&amp;lt; &quot; Ом&quot;" style="shape=parallelogram;perimeter=parallelogramPerimeter;whiteSpace=wrap;html=1;fixedSize=1;" parent="1" vertex="1">
          <mxGeometry x="237.5" y="650" width="175" height="40" as="geometry" />
        </mxCell>
        <mxCell id="S9VI-ioRWlaTo8XHlLc8-1" style="edgeStyle=orthogonalEdgeStyle;rounded=0;orthogonalLoop=1;jettySize=auto;html=1;" edge="1" parent="1" target="S9VI-ioRWlaTo8XHlLc8-4">
          <mxGeometry relative="1" as="geometry">
            <mxPoint x="560" y="130" as="targetPoint" />
            <mxPoint x="560" y="110" as="sourcePoint" />
          </mxGeometry>
        </mxCell>
        <mxCell id="S9VI-ioRWlaTo8XHlLc8-3" style="edgeStyle=orthogonalEdgeStyle;rounded=0;orthogonalLoop=1;jettySize=auto;html=1;" edge="1" parent="1" source="S9VI-ioRWlaTo8XHlLc8-4" target="S9VI-ioRWlaTo8XHlLc8-6">
          <mxGeometry relative="1" as="geometry">
            <mxPoint x="560" y="210" as="targetPoint" />
          </mxGeometry>
        </mxCell>
        <mxCell id="S9VI-ioRWlaTo8XHlLc8-4" value="double deposit;&amp;nbsp; &amp;nbsp; &amp;nbsp;const double rate = 0.03;" style="rounded=0;whiteSpace=wrap;html=1;" vertex="1" parent="1">
          <mxGeometry x="500" y="130" width="120" height="50" as="geometry" />
        </mxCell>
        <mxCell id="S9VI-ioRWlaTo8XHlLc8-5" style="edgeStyle=orthogonalEdgeStyle;rounded=0;orthogonalLoop=1;jettySize=auto;html=1;" edge="1" parent="1" source="S9VI-ioRWlaTo8XHlLc8-6" target="S9VI-ioRWlaTo8XHlLc8-8">
          <mxGeometry relative="1" as="geometry">
            <mxPoint x="560" y="280" as="targetPoint" />
          </mxGeometry>
        </mxCell>
        <mxCell id="S9VI-ioRWlaTo8XHlLc8-6" value="&quot;Введіть початковий внесок: &quot;" style="shape=parallelogram;perimeter=parallelogramPerimeter;whiteSpace=wrap;html=1;fixedSize=1;" vertex="1" parent="1">
          <mxGeometry x="490" y="210" width="140" height="40" as="geometry" />
        </mxCell>
        <mxCell id="S9VI-ioRWlaTo8XHlLc8-7" style="edgeStyle=orthogonalEdgeStyle;rounded=0;orthogonalLoop=1;jettySize=auto;html=1;" edge="1" parent="1" source="S9VI-ioRWlaTo8XHlLc8-8" target="S9VI-ioRWlaTo8XHlLc8-10">
          <mxGeometry relative="1" as="geometry">
            <mxPoint x="560" y="350" as="targetPoint" />
          </mxGeometry>
        </mxCell>
        <mxCell id="S9VI-ioRWlaTo8XHlLc8-8" value="&amp;nbsp;cin &amp;gt;&amp;gt; deposit" style="shape=parallelogram;perimeter=parallelogramPerimeter;whiteSpace=wrap;html=1;fixedSize=1;" vertex="1" parent="1">
          <mxGeometry x="500" y="280" width="120" height="40" as="geometry" />
        </mxCell>
        <mxCell id="S9VI-ioRWlaTo8XHlLc8-9" style="edgeStyle=orthogonalEdgeStyle;rounded=0;orthogonalLoop=1;jettySize=auto;html=1;entryX=0.5;entryY=0;entryDx=0;entryDy=0;" edge="1" parent="1" source="S9VI-ioRWlaTo8XHlLc8-10" target="S9VI-ioRWlaTo8XHlLc8-12">
          <mxGeometry relative="1" as="geometry" />
        </mxCell>
        <mxCell id="S9VI-ioRWlaTo8XHlLc8-10" value="deposit += deposit * rate;" style="rounded=0;whiteSpace=wrap;html=1;" vertex="1" parent="1">
          <mxGeometry x="500" y="340" width="120" height="40" as="geometry" />
        </mxCell>
        <mxCell id="S9VI-ioRWlaTo8XHlLc8-11" style="edgeStyle=orthogonalEdgeStyle;rounded=0;orthogonalLoop=1;jettySize=auto;html=1;" edge="1" parent="1" source="S9VI-ioRWlaTo8XHlLc8-12" target="S9VI-ioRWlaTo8XHlLc8-14">
          <mxGeometry relative="1" as="geometry">
            <mxPoint x="560" y="480" as="targetPoint" />
          </mxGeometry>
        </mxCell>
        <mxCell id="S9VI-ioRWlaTo8XHlLc8-12" value="deposit += deposit * rate;" style="rounded=0;whiteSpace=wrap;html=1;" vertex="1" parent="1">
          <mxGeometry x="500" y="410" width="120" height="40" as="geometry" />
        </mxCell>
        <mxCell id="S9VI-ioRWlaTo8XHlLc8-13" style="edgeStyle=orthogonalEdgeStyle;rounded=0;orthogonalLoop=1;jettySize=auto;html=1;" edge="1" parent="1" source="S9VI-ioRWlaTo8XHlLc8-14" target="S9VI-ioRWlaTo8XHlLc8-16">
          <mxGeometry relative="1" as="geometry">
            <mxPoint x="560" y="540" as="targetPoint" />
          </mxGeometry>
        </mxCell>
        <mxCell id="S9VI-ioRWlaTo8XHlLc8-14" value="Формат виводу (Fixed) та два знаки після коми" style="rounded=0;whiteSpace=wrap;html=1;" vertex="1" parent="1">
          <mxGeometry x="500" y="470" width="120" height="40" as="geometry" />
        </mxCell>
        <mxCell id="S9VI-ioRWlaTo8XHlLc8-15" style="edgeStyle=orthogonalEdgeStyle;rounded=0;orthogonalLoop=1;jettySize=auto;html=1;" edge="1" parent="1" source="S9VI-ioRWlaTo8XHlLc8-16" target="S9VI-ioRWlaTo8XHlLc8-17">
          <mxGeometry relative="1" as="geometry">
            <mxPoint x="560" y="610" as="targetPoint" />
          </mxGeometry>
        </mxCell>
        <mxCell id="S9VI-ioRWlaTo8XHlLc8-16" value="cout &amp;lt;&amp;lt; &quot;Сума внеску після 2 років: &quot; &amp;lt;&amp;lt; deposit &amp;lt;&amp;lt; &quot; грн&quot;" style="shape=parallelogram;perimeter=parallelogramPerimeter;whiteSpace=wrap;html=1;fixedSize=1;" vertex="1" parent="1">
          <mxGeometry x="465" y="540" width="190" height="40" as="geometry" />
        </mxCell>
        <mxCell id="S9VI-ioRWlaTo8XHlLc8-17" value="End" style="ellipse;whiteSpace=wrap;html=1;" vertex="1" parent="1">
          <mxGeometry x="500" y="610" width="120" height="40" as="geometry" />
        </mxCell>
        <mxCell id="S9VI-ioRWlaTo8XHlLc8-18" value="cout &amp;lt;&amp;lt; &quot;----Банк Альфа-омега----&quot;" style="shape=parallelogram;perimeter=parallelogramPerimeter;whiteSpace=wrap;html=1;fixedSize=1;" vertex="1" parent="1">
          <mxGeometry x="495" y="50" width="130" height="60" as="geometry" />
        </mxCell>
      </root>
    </mxGraphModel>
  </diagram>
</mxfile>
